<?xml version="1.0" encoding="UTF-8" standalone="no"?><svg xmlns="http://www.w3.org/2000/svg" xmlns:xlink="http://www.w3.org/1999/xlink" contentStyleType="text/css" height="1030px" preserveAspectRatio="none" style="width:1082px;height:1030px;background:#FFFFFF;" version="1.1" viewBox="0 0 1082 1030" width="1082px" zoomAndPan="magnify"><defs/><g><rect fill="none" height="155.8633" style="stroke:#000000;stroke-width:3.0;" width="541" x="20" y="770.5664"/><line style="stroke:#181818;stroke-width:1.0;stroke-dasharray:5.0,5.0;" x1="90" x2="90" y1="72.9766" y2="960.4297"/><line style="stroke:#181818;stroke-width:1.0;stroke-dasharray:5.0,5.0;" x1="485" x2="485" y1="72.9766" y2="960.4297"/><line style="stroke:#181818;stroke-width:1.0;stroke-dasharray:5.0,5.0;" x1="1004" x2="1004" y1="72.9766" y2="960.4297"/><rect fill="#E2E2F0" height="60.9766" rx="5" ry="5" style="stroke:#181818;stroke-width:1.0;" width="102" x="40" y="10"/><text fill="#000000" font-family="sans-serif" font-size="28" lengthAdjust="spacing" textLength="74" x="54" y="51.0703">client</text><rect fill="#E2E2F0" height="60.9766" rx="5" ry="5" style="stroke:#181818;stroke-width:1.0;" width="102" x="40" y="958.4297"/><text fill="#000000" font-family="sans-serif" font-size="28" lengthAdjust="spacing" textLength="74" x="54" y="999.5">client</text><rect fill="#E2E2F0" height="60.9766" rx="5" ry="5" style="stroke:#181818;stroke-width:1.0;" width="112" x="429" y="10"/><text fill="#000000" font-family="sans-serif" font-size="28" lengthAdjust="spacing" textLength="84" x="443" y="51.0703">server</text><rect fill="#E2E2F0" height="60.9766" rx="5" ry="5" style="stroke:#181818;stroke-width:1.0;" width="112" x="429" y="958.4297"/><text fill="#000000" font-family="sans-serif" font-size="28" lengthAdjust="spacing" textLength="84" x="443" y="999.5">server</text><rect fill="#E2E2F0" height="60.9766" rx="5" ry="5" style="stroke:#181818;stroke-width:1.0;" width="106" x="952" y="10"/><text fill="#000000" font-family="sans-serif" font-size="28" lengthAdjust="spacing" textLength="78" x="966" y="51.0703">cache</text><rect fill="#E2E2F0" height="60.9766" rx="5" ry="5" style="stroke:#181818;stroke-width:1.0;" width="106" x="952" y="958.4297"/><text fill="#000000" font-family="sans-serif" font-size="28" lengthAdjust="spacing" textLength="78" x="966" y="999.5">cache</text><rect fill="#EEEEEE" height="6" style="stroke:#EEEEEE;stroke-width:2.0;" width="1068" x="0" y="134.2871"/><line style="stroke:#000000;stroke-width:2.0;" x1="0" x2="1068" y1="134.2871" y2="134.2871"/><line style="stroke:#000000;stroke-width:2.0;" x1="0" x2="1068" y1="140.2871" y2="140.2871"/><rect fill="#EEEEEE" height="46.6211" style="stroke:#000000;stroke-width:4.0;" width="292" x="388" y="112.9766"/><text fill="#000000" font-family="sans-serif" font-size="26" font-weight="bold" lengthAdjust="spacing" textLength="256" x="400" y="146.1133">получение задачи</text><polygon fill="#181818" points="461,214.2188,481,222.2188,461,230.2188,469,222.2188" style="stroke:#181818;stroke-width:2.0;"/><line style="stroke:#181818;stroke-width:2.0;" x1="91" x2="473" y1="222.2188" y2="222.2188"/><text fill="#000000" font-family="sans-serif" font-size="26" lengthAdjust="spacing" textLength="346" x="105" y="212.7344">получить задачу на ресурс</text><line style="stroke:#181818;stroke-width:2.0;" x1="485" x2="569" y1="280.8398" y2="280.8398"/><line style="stroke:#181818;stroke-width:2.0;" x1="569" x2="569" y1="280.8398" y2="306.8398"/><line style="stroke:#181818;stroke-width:2.0;" x1="487" x2="569" y1="306.8398" y2="306.8398"/><polygon fill="#181818" points="507,298.8398,487,306.8398,507,314.8398,499,306.8398" style="stroke:#181818;stroke-width:2.0;"/><text fill="#000000" font-family="sans-serif" font-size="26" lengthAdjust="spacing" textLength="492" x="499" y="271.3555">сгенерировать идентификатор задачи</text><polygon fill="#181818" points="981,357.4609,1001,365.4609,981,373.4609,989,365.4609" style="stroke:#181818;stroke-width:2.0;"/><line style="stroke:#181818;stroke-width:2.0;" x1="485" x2="993" y1="365.4609" y2="365.4609"/><text fill="#000000" font-family="sans-serif" font-size="26" lengthAdjust="spacing" textLength="342" x="499" y="355.9766">сохранить идентификатор</text><polygon fill="#181818" points="113,416.082,93,424.082,113,432.082,105,424.082" style="stroke:#181818;stroke-width:2.0;"/><line style="stroke:#181818;stroke-width:2.0;" x1="101" x2="483" y1="424.082" y2="424.082"/><text fill="#000000" font-family="sans-serif" font-size="26" lengthAdjust="spacing" textLength="294" x="125" y="414.5977">отдать идентификатор</text><rect fill="#EEEEEE" height="6" style="stroke:#EEEEEE;stroke-width:2.0;" width="1068" x="0" y="481.3926"/><line style="stroke:#000000;stroke-width:2.0;" x1="0" x2="1068" y1="481.3926" y2="481.3926"/><line style="stroke:#000000;stroke-width:2.0;" x1="0" x2="1068" y1="487.3926" y2="487.3926"/><rect fill="#EEEEEE" height="46.6211" style="stroke:#000000;stroke-width:4.0;" width="348" x="360" y="460.082"/><text fill="#000000" font-family="sans-serif" font-size="26" font-weight="bold" lengthAdjust="spacing" textLength="312" x="372" y="493.2188">получение результата</text><line style="stroke:#181818;stroke-width:2.0;" x1="91" x2="175" y1="569.3242" y2="569.3242"/><line style="stroke:#181818;stroke-width:2.0;" x1="175" x2="175" y1="569.3242" y2="595.3242"/><line style="stroke:#181818;stroke-width:2.0;" x1="93" x2="175" y1="595.3242" y2="595.3242"/><polygon fill="#181818" points="113,587.3242,93,595.3242,113,603.3242,105,595.3242" style="stroke:#181818;stroke-width:2.0;"/><text fill="#000000" font-family="sans-serif" font-size="26" lengthAdjust="spacing" textLength="306" x="105" y="559.8398">произвести вычисления</text><polygon fill="#181818" points="461,645.9453,481,653.9453,461,661.9453,469,653.9453" style="stroke:#181818;stroke-width:2.0;"/><line style="stroke:#181818;stroke-width:2.0;" x1="91" x2="473" y1="653.9453" y2="653.9453"/><text fill="#000000" font-family="sans-serif" font-size="26" lengthAdjust="spacing" textLength="202" x="105" y="644.4609">сообщить ответ</text><polygon fill="#181818" points="981,704.5664,1001,712.5664,981,720.5664,989,712.5664" style="stroke:#181818;stroke-width:2.0;"/><line style="stroke:#181818;stroke-width:2.0;" x1="485" x2="993" y1="712.5664" y2="712.5664"/><text fill="#000000" font-family="sans-serif" font-size="26" lengthAdjust="spacing" textLength="470" x="499" y="703.082">проверить наличие идентификатора</text><polygon fill="#181818" points="507,732.5664,487,740.5664,507,748.5664,499,740.5664" style="stroke:#181818;stroke-width:2.0;"/><line style="stroke:#181818;stroke-width:2.0;" x1="495" x2="1003" y1="740.5664" y2="740.5664"/><path d="M20,770.5664 L144,770.5664 L144,785.1875 L124,805.1875 L20,805.1875 L20,770.5664 " fill="#EEEEEE" style="stroke:#000000;stroke-width:3.0;"/><rect fill="none" height="155.8633" style="stroke:#000000;stroke-width:3.0;" width="541" x="20" y="770.5664"/><text fill="#000000" font-family="sans-serif" font-size="26" font-weight="bold" lengthAdjust="spacing" textLength="34" x="50" y="797.7031">alt</text><text fill="#000000" font-family="sans-serif" font-size="22" font-weight="bold" lengthAdjust="spacing" textLength="184" x="174" y="795.8359">[запрос найден]</text><polygon fill="#181818" points="113,839.8086,93,847.8086,113,855.8086,105,847.8086" style="stroke:#181818;stroke-width:2.0;"/><line style="stroke:#181818;stroke-width:2.0;" x1="101" x2="483" y1="847.8086" y2="847.8086"/><text fill="#000000" font-family="sans-serif" font-size="26" lengthAdjust="spacing" textLength="180" x="125" y="838.3242">отдать цитату</text><line style="stroke:#000000;stroke-width:2.0;stroke-dasharray:2.0,2.0;" x1="20" x2="561" y1="865.8086" y2="865.8086"/><polygon fill="#181818" points="113,902.4297,93,910.4297,113,918.4297,105,910.4297" style="stroke:#181818;stroke-width:2.0;"/><line style="stroke:#181818;stroke-width:2.0;" x1="101" x2="483" y1="910.4297" y2="910.4297"/><text fill="#000000" font-family="sans-serif" font-size="26" lengthAdjust="spacing" textLength="192" x="125" y="900.9453">отдать ошибку</text><!--SRC=[XP5RQiCm44N_jOhPG3SGSFTYN44D9XZ7zDkFFcaWMr7ScAW9TRSmiwFEI6ghD0t665lpE3FtgaohEi_oCbtMa1MvveygezXALtUwEWbbQNQhbL990lY94nwffoSSyGCjZe1xDBX3mo4BIQ9Ke5vT1zOYxhBKqJhgeHwOOu0Q7AdbaePQvVj-2R00Ql7DZHovql8xuS3z3cOPnIdgE77FfuCaSABcPBU8wWHvw4GF33EYPGOMzpk5h6lYr6vsZKlEYMRSKy_XDLTAjH47VmmCFsAWKsnPp-1yuXc00xqwHriyUYPjpimFAldPqiktHbbREDq_deHHGp3QrVC5yGWhm-J2Bmf5epmc6g_IelRtuC3KUjoxPvoP2dzSfKTPmXrwfOkLXjaMFZppLbiyICloHdq1]--></g></svg>